<?xml version="1.0" encoding="UTF-8"?><svg xmlns="http://www.w3.org/2000/svg" xmlns:xlink="http://www.w3.org/1999/xlink" viewBox="0 0 100 100"><defs><linearGradient id="Dégradé_sans_nom_101" x1="13.23" y1="45.91" x2="33.31" y2="65.99" gradientUnits="userSpaceOnUse"><stop offset="0" stop-color="#ff80bf"/><stop offset="1" stop-color="#ff0080"/></linearGradient><linearGradient id="Dégradé_sans_nom_43" x1="26.26" y1="69.31" x2="36.64" y2="79.69" gradientUnits="userSpaceOnUse"><stop offset="0" stop-color="#fff"/><stop offset="1" stop-color="gray"/></linearGradient><linearGradient id="Dégradé_sans_nom_43-2" x1="16.91" y1="37.05" x2="45.31" y2="37.05" xlink:href="#Dégradé_sans_nom_43"/><linearGradient id="Dégradé_sans_nom_43-3" x1="39.96" y1="19.2" x2="60.04" y2="39.28" xlink:href="#Dégradé_sans_nom_43"/><linearGradient id="Dégradé_sans_nom_43-4" x1="55.28" y1="61.23" x2="81.82" y2="87.77" xlink:href="#Dégradé_sans_nom_43"/><linearGradient id="Dégradé_sans_nom_43-5" x1="63.36" y1="32.21" x2="73.74" y2="42.59" xlink:href="#Dégradé_sans_nom_43"/><linearGradient id="Dégradé_sans_nom_43-6" x1="66.69" y1="45.91" x2="86.77" y2="65.99" xlink:href="#Dégradé_sans_nom_43"/></defs><g isolation="isolate"><g id="Calque_1"><path d="M8.32,60.1l11.99,2.7h.06c3.65.87,7.48.55,10.95-.88l9.97-4.13c1.64-.68,1.64-3,0-3.68l-9.97-4.13c-3.46-1.44-7.29-1.75-10.95-.9h-.06s-11.99,2.72-11.99,2.72c-4.43,1-4.43,7.31,0,8.31Z" fill="#ff0080"/><path d="M23.47,88.36l10.39-6.56.04-.02c3.19-1.99,5.68-4.92,7.12-8.4l4.12-9.96c.68-1.64-.96-3.28-2.6-2.6l-9.96,4.12c-3.48,1.44-6.41,3.93-8.4,7.12l-.02.04-6.56,10.38c-2.43,3.84,2.04,8.3,5.87,5.88Z" fill="#ff4d4d"/><path d="M17.6,29.42l6.56,10.38.02.04c1.99,3.19,4.92,5.68,8.4,7.12l9.96,4.12c1.64.68,3.28-.96,2.6-2.6l-4.12-9.96c-1.44-3.48-3.93-6.41-7.12-8.4l-.04-.02-10.39-6.56c-3.83-2.42-8.3,2.04-5.87,5.88Z" fill="#7928ca"/><path d="M51.84,47.26l4.12-9.95c1.44-3.48,1.76-7.33.91-11v-.04s-2.72-11.99-2.72-11.99c-1-4.43-7.3-4.43-8.3,0l-2.71,11.99s-.02.09-.03.13c-.83,3.4-.71,6.96.63,10.19l4.42,10.68c.68,1.64,3,1.64,3.68,0Z" fill="#0070f3"/><path d="M54.85,63.41l4.13,9.97c1.44,3.47,3.93,6.41,7.12,8.39l.04.02,10.39,6.56c3.84,2.42,8.3-2.04,5.87-5.88l-6.55-10.38-.02-.04c-1.99-3.19-4.92-5.68-8.4-7.12l-9.97-4.13c-1.64-.68-3.28.96-2.6,2.6Z" fill="#f5a623"/><path d="M67.42,46.97c3.47-1.44,6.41-3.93,8.4-7.12l.02-.04,6.55-10.38c2.43-3.84-2.03-8.3-5.87-5.88l-10.39,6.56-.04.03c-3.19,1.99-5.68,4.92-7.12,8.39l-4.13,9.97c-.68,1.64.96,3.28,2.6,2.6l9.97-4.13Z" fill="#06b6d4"/><path d="M68.66,61.91c3.48,1.44,7.32,1.76,10.99.91h.04s11.99-2.71,11.99-2.71c4.43-1,4.43-7.31,0-8.31l-11.99-2.7h-.04c-3.67-.86-7.51-.54-10.99.9l-9.94,4.12c-1.64.68-1.64,3,0,3.68l9.94,4.12Z" fill="#10b981"/><path d="M24.45,49.01c2.32,0,4.58.45,6.72,1.34l9.97,4.13c.72.3.98.96.98,1.47s-.26,1.17-.98,1.47l-9.97,4.13c-2.14.89-4.4,1.34-6.72,1.34-1.34,0-2.68-.15-3.98-.46h-.06s-11.99-2.72-11.99-2.72c-2.22-.5-3.01-2.34-3.01-3.77s.79-3.26,3.01-3.77l11.99-2.7h.06c1.3-.32,2.64-.47,3.98-.47M24.45,48.61c-1.36,0-2.73.16-4.07.47h-.06s-11.99,2.72-11.99,2.72c-4.43,1-4.43,7.31,0,8.31l11.99,2.7h.06c1.34.33,2.71.48,4.07.48,2.35,0,4.68-.46,6.87-1.37l9.97-4.13c1.64-.68,1.64-3,0-3.68l-9.97-4.13c-2.19-.91-4.53-1.37-6.87-1.37h0Z" fill="url(#Dégradé_sans_nom_101)"/><g mix-blend-mode="soft-light"><path d="M43.32,61.05c.53,0,1.02.27,1.32.72.3.44.35.98.14,1.48l-4.12,9.96c-1.42,3.42-3.82,6.26-7.01,8.24l-10.39,6.56c-.66.41-1.35.62-2.07.62-1.38,0-2.71-.82-3.41-2.08-.68-1.23-.62-2.65.16-3.88l6.59-10.42c1.95-3.14,4.79-5.55,8.21-6.97l9.96-4.12c.2-.08.41-.13.62-.13M43.32,60.65c-.25,0-.51.05-.77.16l-9.96,4.12c-3.48,1.44-6.41,3.93-8.4,7.12l-.02.04-6.56,10.38c-1.95,3.08.55,6.57,3.59,6.57.75,0,1.53-.21,2.28-.69l10.39-6.56.04-.02c3.19-1.99,5.68-4.92,7.12-8.4l4.12-9.96c.57-1.38-.5-2.76-1.83-2.76h0Z" fill="url(#Dégradé_sans_nom_43)"/></g><g mix-blend-mode="soft-light"><path d="M21.19,23.26c.72,0,1.41.21,2.07.62l10.43,6.59c3.14,1.95,5.55,4.79,6.97,8.21l4.12,9.96c.21.5.16,1.04-.14,1.49-.3.45-.8.72-1.32.72-.21,0-.42-.04-.62-.13l-9.96-4.12c-3.42-1.42-6.26-3.82-8.24-7.01l-6.56-10.38c-.78-1.23-.84-2.64-.16-3.88.69-1.26,2.03-2.08,3.41-2.08M21.19,22.86c-3.04,0-5.54,3.48-3.59,6.57l6.56,10.38.02.04c1.99,3.19,4.92,5.68,8.4,7.12l9.96,4.12c.26.11.52.16.77.16,1.33,0,2.4-1.38,1.83-2.76l-4.12-9.96c-1.44-3.48-3.93-6.41-7.12-8.4l-.04-.02-10.39-6.56c-.75-.48-1.53-.69-2.28-.69h0Z" fill="url(#Dégradé_sans_nom_43-2)"/></g><g mix-blend-mode="soft-light"><path d="M50,11.36c1.42,0,3.26.79,3.76,3.01l2.72,12.03c.84,3.61.53,7.33-.89,10.76l-4.12,9.95c-.3.72-.96.98-1.47.98s-1.17-.26-1.47-.98l-4.42-10.68c-1.25-3.01-1.46-6.45-.61-9.94l.03-.14,2.71-11.99c.5-2.22,2.34-3.01,3.76-3.01M50,10.96c-1.83,0-3.65,1.11-4.15,3.32l-2.71,11.99s-.02.09-.03.13c-.83,3.4-.71,6.96.63,10.19l4.42,10.68c.34.82,1.09,1.23,1.84,1.23s1.5-.41,1.84-1.23l4.12-9.95c1.44-3.48,1.76-7.33.91-11v-.04s-2.72-11.99-2.72-11.99c-.5-2.21-2.32-3.32-4.15-3.32h0Z" fill="url(#Dégradé_sans_nom_43-3)"/></g><g mix-blend-mode="soft-light"><path d="M56.68,61.05c.21,0,.42.04.62.13l9.97,4.13c3.42,1.41,6.26,3.82,8.24,7l6.55,10.38c.78,1.23.84,2.65.16,3.88-.69,1.26-2.03,2.07-3.4,2.07-.72,0-1.41-.21-2.07-.62l-10.39-6.56-.04-.03h0c-3.14-1.95-5.55-4.79-6.96-8.21l-4.13-9.97c-.21-.5-.16-1.04.14-1.49.3-.45.8-.72,1.32-.72M56.68,60.65c-1.33,0-2.4,1.38-1.83,2.76l4.13,9.97c1.44,3.47,3.93,6.41,7.12,8.39l.04.02,10.39,6.56c.76.48,1.54.69,2.28.69,3.05,0,5.54-3.48,3.58-6.57l-6.55-10.38-.02-.04c-1.99-3.19-4.92-5.68-8.4-7.12l-9.97-4.13c-.26-.11-.52-.16-.77-.16h0Z" fill="url(#Dégradé_sans_nom_43-4)"/></g><g mix-blend-mode="soft-light"><path d="M78.82,23.26c1.37,0,2.71.81,3.4,2.07.68,1.23.62,2.65-.16,3.88l-6.58,10.42c-1.95,3.14-4.79,5.55-8.21,6.96l-9.97,4.13c-.2.08-.41.13-.62.13-.53,0-1.02-.27-1.32-.72-.3-.44-.35-.98-.14-1.48l4.13-9.97c1.41-3.42,3.82-6.25,6.96-8.21l.04-.03h0s10.39-6.56,10.39-6.56c.66-.41,1.36-.62,2.07-.62M78.82,22.86c-.75,0-1.53.21-2.28.69l-10.39,6.56-.04.03c-3.19,1.99-5.68,4.92-7.12,8.39l-4.13,9.97c-.57,1.38.5,2.76,1.83,2.76.25,0,.51-.05.77-.16l9.97-4.13c3.47-1.44,6.41-3.93,8.4-7.12l.02-.04,6.55-10.38c1.95-3.08-.54-6.57-3.58-6.57h0Z" fill="url(#Dégradé_sans_nom_43-5)"/></g><g mix-blend-mode="soft-light"><path d="M75.57,49.02c1.34,0,2.68.15,4.03.47l11.99,2.7c2.22.5,3.01,2.34,3.01,3.77s-.79,3.26-3.01,3.77l-12.03,2.71c-1.31.3-2.65.46-3.99.46-2.33,0-4.61-.45-6.76-1.34l-9.94-4.12c-.72-.3-.98-.96-.98-1.47s.26-1.17.98-1.47l9.94-4.12c2.15-.89,4.43-1.34,6.76-1.34M75.57,48.62c-2.36,0-4.71.46-6.91,1.37l-9.94,4.12c-1.64.68-1.64,3,0,3.68l9.94,4.12c2.2.91,4.55,1.37,6.91,1.37,1.36,0,2.73-.15,4.08-.47h.04s11.99-2.71,11.99-2.71c4.43-1,4.43-7.31,0-8.31l-11.99-2.7h-.04c-1.34-.32-2.71-.48-4.08-.48h0Z" fill="url(#Dégradé_sans_nom_43-6)"/></g></g></g></svg>