<?xml version="1.0" encoding="UTF-8"?><svg id="Calque_1" xmlns="http://www.w3.org/2000/svg" viewBox="0 0 100 100"><path d="M8.32,60.1l11.99,2.7h.06c3.65.87,7.48.55,10.95-.88l9.97-4.13c1.64-.68,1.64-3,0-3.68l-9.97-4.13c-3.46-1.44-7.29-1.75-10.95-.9h-.06s-11.99,2.72-11.99,2.72c-4.43,1-4.43,7.31,0,8.31Z" fill="#ff0080"/><path d="M23.47,88.36l10.39-6.56.04-.02c3.19-1.99,5.68-4.92,7.12-8.4l4.12-9.96c.68-1.64-.96-3.28-2.6-2.6l-9.96,4.12c-3.48,1.44-6.41,3.93-8.4,7.12l-.02.04-6.56,10.38c-2.43,3.84,2.04,8.3,5.87,5.88Z" fill="#ff4d4d"/><path d="M17.6,29.42l6.56,10.38.02.04c1.99,3.19,4.92,5.68,8.4,7.12l9.96,4.12c1.64.68,3.28-.96,2.6-2.6l-4.12-9.96c-1.44-3.48-3.93-6.41-7.12-8.4l-.04-.02-10.39-6.56c-3.83-2.42-8.3,2.04-5.87,5.88Z" fill="#7928ca"/><path d="M51.84,47.26l4.12-9.95c1.44-3.48,1.76-7.33.91-11v-.04s-2.72-11.99-2.72-11.99c-1-4.43-7.3-4.43-8.3,0l-2.71,11.99s-.02.09-.03.13c-.83,3.4-.71,6.96.63,10.19l4.42,10.68c.68,1.64,3,1.64,3.68,0Z" fill="#0070f3"/><path d="M54.85,63.41l4.13,9.97c1.44,3.47,3.93,6.41,7.12,8.39l.04.02,10.39,6.56c3.84,2.42,8.3-2.04,5.87-5.88l-6.55-10.38-.02-.04c-1.99-3.19-4.92-5.68-8.4-7.12l-9.97-4.13c-1.64-.68-3.28.96-2.6,2.6Z" fill="#f5a623"/><path d="M67.42,46.97c3.47-1.44,6.41-3.93,8.4-7.12l.02-.04,6.55-10.38c2.43-3.84-2.03-8.3-5.87-5.88l-10.39,6.56-.04.03c-3.19,1.99-5.68,4.92-7.12,8.39l-4.13,9.97c-.68,1.64.96,3.28,2.6,2.6l9.97-4.13Z" fill="#06b6d4"/><path d="M68.66,61.91c3.48,1.44,7.32,1.76,10.99.91h.04s11.99-2.71,11.99-2.71c4.43-1,4.43-7.31,0-8.31l-11.99-2.7h-.04c-3.67-.86-7.51-.54-10.99.9l-9.94,4.12c-1.64.68-1.64,3,0,3.68l9.94,4.12Z" fill="#10b981"/></svg>