<?xml version="1.0" encoding="UTF-8"?><svg id="Calque_1" xmlns="http://www.w3.org/2000/svg" xmlns:xlink="http://www.w3.org/1999/xlink" viewBox="0 0 100 100"><defs><linearGradient id="Dégradé_sans_nom_19" x1="50" y1="100" x2="50" y2="0" gradientUnits="userSpaceOnUse"><stop offset="0" stop-color="#ededed"/><stop offset="1" stop-color="#fff"/></linearGradient></defs><rect width="100" height="100" fill="url(#Dégradé_sans_nom_19)"/><path d="M11.59,59.31l11.05,2.49h.06c3.37.8,6.89.51,10.09-.82l9.19-3.81c1.51-.63,1.51-2.77,0-3.39l-9.19-3.81c-3.19-1.32-6.72-1.61-10.09-.83h-.06s-11.05,2.5-11.05,2.5c-4.08.92-4.08,6.74,0,7.66Z" fill="#ff0080"/><path d="M25.54,85.35l9.58-6.05.04-.02c2.94-1.83,5.24-4.54,6.57-7.74l3.8-9.18c.63-1.51-.89-3.03-2.4-2.4l-9.18,3.8c-3.2,1.33-5.91,3.62-7.74,6.57l-.02.04-6.05,9.57c-2.24,3.54,1.88,7.65,5.41,5.42Z" fill="#ff4d4d"/><path d="M20.14,31.03l6.05,9.57.02.04c1.83,2.94,4.54,5.24,7.74,6.57l9.18,3.8c1.51.63,3.03-.89,2.4-2.4l-3.8-9.18c-1.33-3.2-3.62-5.91-6.57-7.74l-.04-.02-9.58-6.05c-3.53-2.23-7.65,1.88-5.41,5.42Z" fill="#7928ca"/><path d="M51.69,47.48l3.8-9.17c1.33-3.21,1.62-6.75.84-10.14v-.04s-2.51-11.05-2.51-11.05c-.92-4.08-6.73-4.08-7.65,0l-2.5,11.05s-.02.08-.03.12c-.76,3.13-.66,6.41.58,9.39l4.07,9.84c.63,1.51,2.77,1.51,3.39,0Z" fill="#0070f3"/><path d="M54.47,62.36l3.8,9.19c1.33,3.2,3.62,5.91,6.56,7.74l.04.02,9.58,6.05c3.54,2.23,7.65-1.88,5.41-5.42l-6.04-9.57-.02-.04c-1.83-2.94-4.54-5.24-7.74-6.56l-9.19-3.8c-1.51-.63-3.03.89-2.4,2.4Z" fill="#f5a623"/><path d="M66.06,47.2c3.2-1.33,5.91-3.62,7.74-6.56l.02-.04,6.04-9.57c2.24-3.54-1.87-7.65-5.41-5.42l-9.58,6.05-.04.02c-2.94,1.83-5.24,4.54-6.56,7.74l-3.8,9.19c-.63,1.51.89,3.03,2.4,2.4l9.19-3.8Z" fill="#06b6d4"/><path d="M67.2,60.98c3.21,1.33,6.75,1.62,10.13.84h.04s11.05-2.5,11.05-2.5c4.08-.92,4.08-6.74,0-7.66l-11.05-2.49h-.04c-3.38-.79-6.92-.5-10.13.83l-9.16,3.79c-1.51.63-1.51,2.77,0,3.39l9.16,3.79Z" fill="#10b981"/></svg>