<?xml version="1.0" encoding="UTF-8"?><svg id="Calque_1" xmlns="http://www.w3.org/2000/svg" viewBox="0 0 200 200"><circle cx="100" cy="100" r="100"/><path d="M72.91,29.48c-27.83,16.92-48.31,52.15-39.9,85.06,4.53,19.87,17.3,37.76,35.27,47.5,20.11,10.92,45.31,11.98,65.99,1.99,24.73-11.8,39.69-37.15,36.32-64.58,0,0-.45-3.61-.45-3.61,0,0-.73-3.58-.73-3.58-.18-1.07-.53-2.53-.85-3.55-9.07-36.67-54.2-61.82-89-43.81-30.83,15.64-42.64,60.99-19.72,88.01,15.47,18.54,44.28,28.31,66.67,17.21,29.86-15.52,31.08-63.12,2.96-81.11-25.13-16.9-57.36,6.93-60.8,33.96-.69,4.94-.56,10.1.77,14.92,4.28,15.28,22.71,22.01,36.62,15.42,15.24-6.56,24.78-29.65,11.88-42.66-9.31-8.97-22.18-.57-23.56,10.76-.26,2.39-.03,5.54,2.3,6.82,3.25,1.66,8.51-4.46,10.64-6.62-2.14,2.23-7.37,8.5-10.74,6.77-2.4-1.27-2.73-4.54-2.49-7.01,1.29-11.83,14.64-20.43,24.37-11.27,7.48,6.98,8,18.6,4.09,27.57-7.3,18.36-29.97,26.16-46.11,13.88-8.44-6.32-11.17-16.8-10.32-26.92.95-11.28,6.2-21.98,14.03-30.09,16.16-16.7,39.95-20.12,57.63-3.6,20.44,18.38,21.39,52.73,3.8,73.38-18.63,21.76-52.64,18.89-74.32,3.33-29.09-19.93-33.32-58.38-14.95-87.2,11.94-19.1,33.13-30.39,55.68-29.4,33.07,1.29,63.65,26.74,70.45,59.19,3.83,16.11,2.37,33.59-4.86,48.58-23.66,48.2-89.24,56.96-127.78,21.34-14.39-13.2-23.61-31.64-26.64-50.79-3.8-25.14,5.86-50.62,21.61-69.89,6.99-8.56,15.34-16.04,24.87-21.97,3.28-2.04,7.6-1.04,9.64,2.25,2.08,3.33,1,7.73-2.38,9.72h0Z" fill="#fff"/></svg>